<svg width="14" height="14" viewBox="0 0 14 14" fill="none" xmlns="http://www.w3.org/2000/svg">
<mask id="mask0" mask-type="alpha" maskUnits="userSpaceOnUse" x="0" y="0" width="14" height="14">
<rect x="0.5" y="0.551758" width="13" height="13" fill="white"/>
</mask>
<g mask="url(#mask0)">
<path fill-rule="evenodd" clip-rule="evenodd" d="M7.00004 1.65674C4.02087 1.65674 1.58337 4.08882 1.58337 7.08424C1.58337 9.79257 3.56587 12.0405 6.15504 12.4467V8.65507H4.77921V7.08424H6.15504V5.88716C6.15504 4.52757 6.96212 3.78007 8.20254 3.78007C8.79296 3.78007 9.41046 3.88299 9.41046 3.88299V5.2209H8.72796C8.05629 5.2209 7.84504 5.63799 7.84504 6.06591V7.08424H9.35087L9.10712 8.65507H7.84504V12.4467C10.4823 12.0302 12.4227 9.75416 12.4167 7.08424C12.4167 4.08882 9.97921 1.65674 7.00004 1.65674Z" fill="white"/>
</g>
</svg>
