<svg width="14" height="14" viewBox="0 0 14 14" fill="none" xmlns="http://www.w3.org/2000/svg">
<mask id="mask0" mask-type="alpha" maskUnits="userSpaceOnUse" x="0" y="0" width="14" height="14">
<rect x="0.5" y="0.551758" width="13" height="13" fill="white"/>
</mask>
<g mask="url(#mask0)">
<path fill-rule="evenodd" clip-rule="evenodd" d="M12.0646 6.56424H7.09753V8.04299H10.6238C10.445 10.1067 8.72794 10.9897 7.10294 10.9897C5.02836 10.9897 3.20836 9.35382 3.20836 7.05174C3.20836 4.8309 4.94169 3.11382 7.10836 3.11382C8.78211 3.11382 9.76253 4.1809 9.76253 4.1809L10.7917 3.1084C10.7917 3.1084 9.47003 1.63507 7.05419 1.63507C3.97753 1.63507 1.59961 4.23507 1.59961 7.05174C1.59961 9.78716 3.83669 12.4684 7.13544 12.4684C10.0334 12.4684 12.1459 10.4805 12.1459 7.54465C12.1459 6.92174 12.0646 6.56424 12.0646 6.56424Z" fill="white"/>
</g>
</svg>
