<svg width="14" height="14" viewBox="0 0 14 14" fill="none" xmlns="http://www.w3.org/2000/svg">
<mask id="mask0" mask-type="alpha" maskUnits="userSpaceOnUse" x="0" y="0" width="14" height="14">
<rect x="0.5" y="0.551758" width="13" height="13" fill="white"/>
</mask>
<g mask="url(#mask0)">
<path fill-rule="evenodd" clip-rule="evenodd" d="M12.6658 3.80178C12.2487 3.99136 11.7991 4.11594 11.3333 4.17553C11.8099 3.88844 12.1783 3.43344 12.3516 2.88636C11.902 3.15719 11.4037 3.34678 10.8783 3.45511C10.4504 2.98928 9.84911 2.71844 9.16661 2.71844C7.89369 2.71844 6.85369 3.75844 6.85369 5.0422C6.85369 5.22636 6.87536 5.40511 6.91327 5.57303C4.98494 5.47553 3.26786 4.54928 2.12494 3.14636C1.92452 3.48761 1.81077 3.88844 1.81077 4.31094C1.81077 5.11803 2.21702 5.83303 2.84536 6.23928C2.46077 6.23928 2.10327 6.13095 1.78911 5.96845C1.78911 5.96845 1.78911 5.96845 1.78911 5.98469C1.78911 7.11136 2.59077 8.05386 3.65244 8.26511C3.45744 8.31928 3.25161 8.34636 3.04036 8.34636C2.89411 8.34636 2.74786 8.33011 2.60702 8.30303C2.89952 9.21845 3.74994 9.90095 4.77369 9.9172C3.98286 10.5455 2.98077 10.9139 1.88661 10.9139C1.70244 10.9139 1.51827 10.903 1.33411 10.8814C2.36327 11.5422 3.58744 11.9268 4.89827 11.9268C9.16661 11.9268 11.512 8.38428 11.512 5.31303C11.512 5.21011 11.512 5.11261 11.5066 5.00969C11.9616 4.6847 12.3516 4.27303 12.6658 3.80178Z" fill="white"/>
</g>
</svg>
